# xmcd
#
# Track frame offsets: 
#        150
#        19532
#        32527
#        49130
#        68880
#        92777
#        109935
#        131555
#        146530
#        160207
#        173780
#        193232
#
# Disc length: 2817 seconds
#
# Revision: 0
# Processed by: cddbd v1.4PL0 Copyright (c) Steve Scherf et al.
# Submitted via: ExactAudioCopy v0.90a11
#
DISCID=a30aff0c
DTITLE=Joanna - 20  anos ao Vivo CD2
DYEAR=1900
DGENRE=
TTITLE0=To fazendo falta
TTITLE1=chama
TTITLE2=cicatrizes
TTITLE3=agora
TTITLE4=mal acostumada
TTITLE5=nos bailes da vida
TTITLE6=uma ficha no arquivo
TTITLE7=decisao
TTITLE8=olere olara (se duvidas)
TTITLE9=fonte de prazer
TTITLE10=amanha talvez
TTITLE11=to fazendo falta (bonus track)
EXTD=
EXTT0=
EXTT1=
EXTT2=
EXTT3=
EXTT4=
EXTT5=
EXTT6=
EXTT7=
EXTT8=
EXTT9=
EXTT10=
EXTT11=
PLAYORDER=
